# xmcd CD database file
#
# Track frame offsets:
#	150
#	16950
#	34950
#	51750
#
# Disc length: 927 seconds
#
# Revision: 1
# Processed by: cddbd v1.5.2PL0 Copyright (c) Steve Scherf et al.
# Submitted via: CDex 1.70beta2
#
DISCID=2b039d04
DTITLE=山下達郎 - Love Can Go The Distance
DYEAR=1999
DGENRE=A Cappella
TTITLE0=Love Can Go The Distance
TTITLE1=When You With Upon a Star
TTITLE2=Love Can Go The Distance(Original Karaoke)
TTITLE3=When You With Upon a Star(Original Karaoke)
EXTD=YEAR: 1999
EXTT0=
EXTT1=
EXTT2=
EXTT3=
PLAYORDER=
